<?xml version="1.0" encoding="utf-8"?><!-- Uploaded to: SVG Repo, www.svgrepo.com, Generator: SVG Repo Mixer Tools -->
<svg fill="#000000" width="800px" height="800px" viewBox="0 0 24 24" id="filter-alt" xmlns="http://www.w3.org/2000/svg" class="icon multi-color"><path id="primary-stroke" d="M5,3V17M12,7V21m7-7v7m0-11V3" style="fill: none; stroke: rgb(0, 0, 0); stroke-linecap: round; stroke-linejoin: round; stroke-width: 2;"></path><path id="secondary-stroke" d="M7,19a2,2,0,1,1-2-2A2,2,0,0,1,7,19ZM12,3a2,2,0,1,0,2,2A2,2,0,0,0,12,3Zm7,7a2,2,0,1,0,2,2A2,2,0,0,0,19,10Z" style="fill: none; stroke: rgb(44, 169, 188); stroke-linecap: round; stroke-linejoin: round; stroke-width: 2;"></path></svg>