<?xml version="1.0" encoding="utf-8"?><!-- Uploaded to: SVG Repo, www.svgrepo.com, Generator: SVG Repo Mixer Tools -->
<svg width="1.4em" height="1.4em" viewBox="0 0 24 24" id="receipt-check" xmlns="http://www.w3.org/2000/svg" class="icon multi-color"><title style="stroke-width: 2;">receipt check</title><path id="tertiary-fill" d="M5,13H21a0,0,0,0,1,0,0v5a3,3,0,0,1-3,3H5a0,0,0,0,1,0,0V13A0,0,0,0,1,5,13Z" style="fill: #b7b7b7; stroke-width: 2;"></path><path id="secondary-fill" d="M18.5,21H5.5A2.5,2.5,0,0,1,3,18.5V16H16v2.5A2.5,2.5,0,0,0,18.5,21Z" style="fill: rgb(44, 169, 188); stroke-width: 2;"></path><path id="primary-stroke" d="M21,4V18.5a2.5,2.5,0,0,1-5,0V16H5V4A1,1,0,0,1,6,3H20A1,1,0,0,1,21,4ZM16,18.5V16H3v2.5A2.5,2.5,0,0,0,5.5,21h13A2.5,2.5,0,0,1,16,18.5ZM10,10l2,2,4-4" style="fill: none; stroke: rgb(0, 0, 0); stroke-linecap: round; stroke-linejoin: round; stroke-width: 2;"></path></svg>